<svg xmlns="http://www.w3.org/2000/svg" width="231.5" height="228.638" viewBox="0 0 231.5 228.638">
  <g id="script" transform="translate(0 -3.165)">
    <g id="Group_9" data-name="Group 9" transform="translate(44.542 18.135)">
      <g id="Group_7" data-name="Group 7" transform="translate(103.528)">
        <g id="Group_6" data-name="Group 6">
          <g id="Group_5" data-name="Group 5">
            <g id="Group_4" data-name="Group 4">
              <g id="Group_3" data-name="Group 3">
                <g id="Group_2" data-name="Group 2">
                  <circle id="Ellipse_1" data-name="Ellipse 1" cx="3.612" cy="3.612" r="3.612" fill="#b4b4b4"/>
                  <circle id="Ellipse_2" data-name="Ellipse 2" cx="3.612" cy="3.612" r="3.612" transform="translate(17.316)" fill="#b4b4b4"/>
                  <circle id="Ellipse_3" data-name="Ellipse 3" cx="3.612" cy="3.612" r="3.612" transform="translate(34.631)" fill="#b4b4b4"/>
                </g>
              </g>
            </g>
          </g>
        </g>
      </g>
      <g id="Group_8" data-name="Group 8" transform="translate(0 57.16)">
        <path id="Path_10" data-name="Path 10" d="M100.418,230.8l22.777-14.9a2.254,2.254,0,0,1,1.3-.346,4.565,4.565,0,0,1,4.157,4.33,3.035,3.035,0,0,1-1.3,2.512l-18.188,11.952L127.353,246.3a2.816,2.816,0,0,1,1.3,2.512,4.478,4.478,0,0,1-4.157,4.244,2.254,2.254,0,0,1-1.3-.346l-22.777-14.9a4.339,4.339,0,0,1-1.905-3.464A4.488,4.488,0,0,1,100.418,230.8Z" transform="translate(-98.513 -191.656)" fill="#b4b4b4"/>
        <path id="Path_11" data-name="Path 11" d="M225.183,165.984a2.537,2.537,0,0,1-.347,1.386l-31.784,63.4a3.142,3.142,0,0,1-2.858,1.646,3.35,3.35,0,0,1-3.378-3.2,3.475,3.475,0,0,1,.26-1.3l31.871-63.655a2.635,2.635,0,0,1,2.6-1.559A3.534,3.534,0,0,1,225.183,165.984Z" transform="translate(-146.891 -162.693)" fill="#b4b4b4"/>
        <path id="Path_12" data-name="Path 12" d="M321.463,237.817l-22.777,14.9a1.989,1.989,0,0,1-1.213.346,4.413,4.413,0,0,1-4.157-4.244,2.957,2.957,0,0,1,1.213-2.512L312.8,234.352,294.529,222.4a3.2,3.2,0,0,1-1.213-2.512,4.5,4.5,0,0,1,4.157-4.33,1.989,1.989,0,0,1,1.213.346l22.777,14.9a4.488,4.488,0,0,1,1.905,3.551A4.117,4.117,0,0,1,321.463,237.817Z" transform="translate(-205.236 -191.656)" fill="#b4b4b4"/>
      </g>
    </g>
    <g id="Group_10" data-name="Group 10" transform="translate(0 3.165)">
      <path id="Path_13" data-name="Path 13" d="M42.106,43.544h73.737a3.391,3.391,0,0,0,0-6.782H42.106a3.391,3.391,0,1,0,0,6.782Z" transform="translate(-21.21 -21.571)" fill="#b4b4b4"/>
      <path id="Path_14" data-name="Path 14" d="M129.5,203.8H10.937a4.159,4.159,0,0,1-4.154-4.154V40.329H200.64v91.92a3.391,3.391,0,1,0,6.782,0V14.1A10.949,10.949,0,0,0,196.486,3.165H10.937A10.949,10.949,0,0,0,0,14.1V199.65a10.949,10.949,0,0,0,10.937,10.937H129.5a3.391,3.391,0,0,0,0-6.782ZM10.937,9.947H196.485A4.159,4.159,0,0,1,200.64,14.1V33.547H6.782V14.1A4.159,4.159,0,0,1,10.937,9.947Z" transform="translate(0 -3.165)" fill="#b4b4b4"/>
      <path id="Path_15" data-name="Path 15" d="M369.018,341.8a24.051,24.051,0,1,0,24.051,24.051A24.078,24.078,0,0,0,369.018,341.8Zm0,41.32a17.269,17.269,0,1,1,17.269-17.269A17.288,17.288,0,0,1,369.018,383.123Z" transform="translate(-188.991 -188.689)" fill="#b4b4b4"/>
      <path id="Path_16" data-name="Path 16" d="M379.2,321.9h-3.113a1.267,1.267,0,0,1-1.217-.877,41.053,41.053,0,0,0-3.254-7.758,1.278,1.278,0,0,1,.227-1.506l2.233-2.233a8.076,8.076,0,0,0,0-11.408l-3.768-3.768a8.076,8.076,0,0,0-11.408,0l-2.232,2.232a1.278,1.278,0,0,1-1.506.227,41.063,41.063,0,0,0-7.758-3.254,1.268,1.268,0,0,1-.877-1.218v-3.113a8.076,8.076,0,0,0-8.067-8.067h-5.328a8.076,8.076,0,0,0-8.067,8.067v2.911a1.265,1.265,0,0,1-.9,1.224,41.021,41.021,0,0,0-8,3.221,1.273,1.273,0,0,1-1.481-.241l-1.99-1.99a8.066,8.066,0,0,0-11.408,0l-3.767,3.768a8.066,8.066,0,0,0,0,11.409l1.787,1.787a1.268,1.268,0,0,1,.225,1.51,41.045,41.045,0,0,0-3.5,8.193,1.29,1.29,0,0,1-1.243.883h-2.4a8.076,8.076,0,0,0-8.067,8.067v5.329a8.076,8.076,0,0,0,8.067,8.067H294.6a1.265,1.265,0,0,1,1.23.889,41.055,41.055,0,0,0,3.463,8.459,1.263,1.263,0,0,1-.239,1.486l-1.539,1.54a8.076,8.076,0,0,0,0,11.408l3.768,3.768a8.075,8.075,0,0,0,11.408,0l1.54-1.54a1.262,1.262,0,0,1,1.485-.239,41.024,41.024,0,0,0,8.459,3.463,1.265,1.265,0,0,1,.889,1.23v2.211a8.076,8.076,0,0,0,8.067,8.067h5.328a8.076,8.076,0,0,0,8.067-8.067v-2.4a1.29,1.29,0,0,1,.883-1.243,41.009,41.009,0,0,0,8.192-3.5,1.269,1.269,0,0,1,1.511.225l1.787,1.788a8.077,8.077,0,0,0,11.408,0l3.768-3.768a8.076,8.076,0,0,0,0-11.408l-1.99-1.99a1.271,1.271,0,0,1-.241-1.481,41.006,41.006,0,0,0,3.221-8,1.266,1.266,0,0,1,1.224-.9H379.2a8.076,8.076,0,0,0,8.067-8.067v-5.329A8.077,8.077,0,0,0,379.2,321.9Zm1.285,13.395a1.286,1.286,0,0,1-1.285,1.285h-2.911a8.074,8.074,0,0,0-7.748,5.826,34.237,34.237,0,0,1-2.687,6.677,8,8,0,0,0,1.435,9.458l1.99,1.99a1.287,1.287,0,0,1,0,1.817l-3.767,3.768a1.288,1.288,0,0,1-1.817,0l-1.787-1.788a8.074,8.074,0,0,0-9.631-1.341,34.272,34.272,0,0,1-6.836,2.918,8.118,8.118,0,0,0-5.7,7.734v2.4a1.286,1.286,0,0,1-1.285,1.285h-5.328a1.286,1.286,0,0,1-1.285-1.285v-2.211a8.072,8.072,0,0,0-5.819-7.754,34.242,34.242,0,0,1-7.058-2.89,7.933,7.933,0,0,0-3.809-.967,8.1,8.1,0,0,0-5.725,2.361l-1.54,1.54a1.286,1.286,0,0,1-1.816,0l-3.768-3.768a1.287,1.287,0,0,1,0-1.817l1.539-1.539a8.08,8.08,0,0,0,1.394-9.535,34.257,34.257,0,0,1-2.89-7.058,8.072,8.072,0,0,0-7.754-5.819h-2.211a1.286,1.286,0,0,1-1.285-1.285v-5.329a1.286,1.286,0,0,1,1.285-1.285h2.4a8.118,8.118,0,0,0,7.734-5.7,34.255,34.255,0,0,1,2.919-6.837,8.074,8.074,0,0,0-1.341-9.63l-1.787-1.787a1.284,1.284,0,0,1,0-1.817l3.768-3.768a1.284,1.284,0,0,1,1.817,0l1.99,1.99a8,8,0,0,0,9.458,1.435,34.206,34.206,0,0,1,6.677-2.687,8.075,8.075,0,0,0,5.827-7.748v-2.911a1.286,1.286,0,0,1,1.285-1.285h5.328a1.286,1.286,0,0,1,1.285,1.285v3.113a8,8,0,0,0,5.693,7.708,34.235,34.235,0,0,1,6.474,2.716,8.1,8.1,0,0,0,9.552-1.384l2.232-2.232a1.286,1.286,0,0,1,1.817,0l3.768,3.768a1.287,1.287,0,0,1,0,1.817l-2.233,2.233a8.1,8.1,0,0,0-1.384,9.552,34.269,34.269,0,0,1,2.716,6.473,7.994,7.994,0,0,0,7.708,5.693H379.2a1.286,1.286,0,0,1,1.285,1.285v5.329Z" transform="translate(-155.766 -155.464)" fill="#b4b4b4"/>
    </g>
  </g>
</svg>
